<svg xmlns="http://www.w3.org/2000/svg" width="48" height="48"><path fill="#ffc107" d="M43.6094 20.082H42V20H24v8h11.3047c-1.6524 4.6563-6.082 8-11.3047 8-6.629 0-12-5.371-12-12s5.371-12 12-12c3.0586 0 5.8438 1.1523 7.961 3.039l5.6562-5.6562C34.0469 6.0547 29.2695 4 24 4 12.9531 4 4 12.9531 4 24s8.9531 20 20 20 20-8.9531 20-20c0-1.3398-.1367-2.6484-.3906-3.918z"/><path fill="#ff3d00" d="M6.3047 14.6914l6.5742 4.8203C14.6563 15.1094 18.961 12 24 12c3.0586 0 5.8438 1.1523 7.961 3.039l5.6562-5.6562C34.0469 6.0547 29.2695 4 24 4 16.3164 4 9.6562 8.336 6.3047 14.6914z"/><path fill="#4caf50" d="M24 44c5.164 0 9.8594-1.9766 13.4102-5.1914l-6.1915-5.2383C29.211 35.0898 26.7148 36 24 36c-5.2031 0-9.6172-3.3164-11.2813-7.9453L6.1954 33.078C9.504 39.5547 16.2266 44 24 44z"/><path fill="#1976d2" d="M43.6094 20.082H42V20H24v8h11.3047c-.793 2.2383-2.2344 4.164-4.0899 5.5703h.004l6.1914 5.2383C36.9727 39.203 44 34 44 24c0-1.3398-.1367-2.6484-.3906-3.918z"/></svg>